<?xml version="1.0" encoding="utf-8"?>
<!-- Generator: Adobe Illustrator 26.3.1, SVG Export Plug-In . SVG Version: 6.00 Build 0)  -->
<svg version="1.1" id="Layer_1" xmlns="http://www.w3.org/2000/svg" xmlns:xlink="http://www.w3.org/1999/xlink" x="0px" y="0px"
	 viewBox="0 0 25 20" style="enable-background:new 0 0 25 20;" xml:space="preserve">
<style type="text/css">
	.st0{fill-rule:evenodd;clip-rule:evenodd;fill:#F8BBD6;}
</style>
<path class="st0" d="M1.1,0.5C0.5,0.5,0,1,0,1.7c0,0.6,0.6,1.1,1.2,1.1H5l0.5,2c0,0.1,0,0.3,0.1,0.4l0,0l2.4,9.1l0.2,0.8h13.5
	l0.2-0.8L24.6,5L25,3.6H7.6L7,1.3L6.8,0.5H1.2C1.1,0.5,1.1,0.5,1.1,0.5z M8.2,5.8h3.1l0.6,2.7h-3L8.2,5.8z M12.9,5.8h5l-0.6,2.7
	h-3.8C13.5,8.5,12.9,5.8,12.9,5.8z M19.5,5.8h2.5l-0.7,2.7h-2.4C18.9,8.5,19.5,5.8,19.5,5.8z M9.4,10.2h3l0.6,2.7h-2.9L9.4,10.2z
	 M14,10.2h3l-0.6,2.7h-1.7L14,10.2z M18.5,10.2h2.3l-0.7,2.7h-2.3L18.5,10.2L18.5,10.2z M11.6,16.2c-0.9,0-1.7,0.8-1.7,1.7
	c0,0.9,0.8,1.7,1.7,1.7s1.7-0.7,1.7-1.7S12.6,16.2,11.6,16.2z M18.2,16.2c-0.9,0-1.7,0.8-1.7,1.7c0,0.9,0.8,1.7,1.7,1.7
	s1.7-0.7,1.7-1.7S19.1,16.2,18.2,16.2z"/>
</svg>
